<?xml version="1.0" encoding="UTF-8"?>
<svg xmlns="http://www.w3.org/2000/svg" xmlns:xlink="http://www.w3.org/1999/xlink" width="24px" height="20px" viewBox="0 0 23 20" version="1.1">
<g id="surface1">
<path style="fill-rule:evenodd;fill:rgb(100%,0%,0%);fill-opacity:1;stroke-width:37;stroke-linecap:butt;stroke-linejoin:miter;stroke:rgb(0%,0%,0%);stroke-opacity:1;stroke-miterlimit:10;" d="M 732.754586 1927.64707 C 693.988961 1727.230078 625.727751 1560.823242 543.140115 1406.562891 C 481.620754 1291.981055 410.409986 1185.901758 344.67697 1074.963867 C 322.765965 1038.119531 303.804518 998.845898 282.736243 960.382031 C 240.599694 883.454297 206.047724 793.975195 208.154552 678.583594 C 210.682745 565.216406 241.442425 474.522656 286.528533 400.429102 C 360.267493 278.559375 483.727582 178.55332 649.324219 152.235937 C 784.582541 130.777148 911.834918 166.811719 1002.007133 222.280664 C 1075.324728 267.627539 1132.209069 328.359961 1175.609715 399.619336 C 1221.117188 473.712891 1252.298234 561.572461 1254.826427 676.55918 C 1256.090523 735.267187 1246.820482 789.521484 1234.179518 834.868359 C 1221.117188 880.215234 1200.048913 918.679102 1181.508832 959.167383 C 1144.850034 1038.929297 1099.342561 1111.808203 1053.413723 1184.687109 C 916.891304 1402.10918 789.217561 1623.984961 732.754586 1927.64707 Z M 732.754586 1927.64707 " transform="matrix(0.00927046,0,0,0.00964785,0,0)"/>
<path style="fill-rule:evenodd;fill:rgb(100%,0%,0%);fill-opacity:1;stroke-width:37;stroke-linecap:butt;stroke-linejoin:miter;stroke:rgb(0%,0%,0%);stroke-opacity:1;stroke-miterlimit:10;" d="M 732.754586 1838.572852 C 693.988961 1648.27793 625.727751 1489.96875 543.140115 1342.996289 C 481.620754 1234.487695 410.409986 1133.671875 344.67697 1028.402344 C 322.765965 993.177539 303.804518 955.92832 282.736243 919.083984 C 240.599694 846.205078 206.047724 761.179687 208.154552 651.456445 C 210.682745 543.757617 241.442425 457.517578 286.528533 387.067969 C 360.267493 271.271484 483.727582 176.124023 649.324219 151.021289 C 784.582541 130.777148 911.834918 165.192187 1002.007133 217.826953 C 1075.324728 260.744531 1132.209069 318.237891 1175.609715 386.258203 C 1221.117188 456.707812 1252.298234 540.518555 1254.826427 649.432031 C 1256.090523 705.305859 1246.820482 756.725977 1234.179518 799.643555 C 1221.117188 843.370898 1200.048913 879.405469 1181.508832 918.274219 C 1144.850034 993.987305 1099.342561 1063.222266 1053.413723 1132.457227 C 916.891304 1339.352344 789.217561 1549.891406 732.754586 1838.572852 Z M 732.754586 1838.572852 " transform="matrix(0.00927046,0,0,0.00964785,0,0)"/>
</g>
</svg>
